<?xml version="1.0" standalone="no"?>
<!DOCTYPE svg PUBLIC "-//W3C//DTD SVG 20010904//EN"
 "http://www.w3.org/TR/2001/REC-SVG-20010904/DTD/svg10.dtd">
<svg version="1.0" xmlns="http://www.w3.org/2000/svg"
 width="270.000000pt" height="270.000000pt" viewBox="0 0 270.000000 270.000000"
 preserveAspectRatio="xMidYMid meet">
<metadata>
Created by potrace 1.14, written by Peter Selinger 2001-2017
</metadata>
<g transform="translate(0.000000,270.000000) scale(0.100000,-0.100000)"
fill="#000000" stroke="none">
<path d="M1166 2693 c-3 -4 -12 -8 -19 -9 -104 -16 -164 -32 -184 -47 -9 -6
-13 -5 -13 4 0 8 -7 6 -22 -7 -13 -11 -32 -19 -43 -19 -11 0 -23 -3 -26 -8 -3
-5 -12 -9 -20 -11 -8 -1 -24 -8 -36 -14 -13 -7 -23 -9 -23 -5 0 4 -4 3 -8 -2
-7 -11 -50 -32 -66 -33 -5 0 -13 -7 -18 -16 -5 -9 -15 -13 -25 -9 -11 4 -14 3
-9 -5 5 -8 0 -12 -14 -12 -12 0 -19 -4 -16 -9 5 -7 -26 -26 -47 -29 -4 -1 -19
-14 -32 -28 -14 -15 -25 -24 -25 -20 0 4 -16 -9 -35 -28 -19 -20 -35 -33 -35
-31 0 3 -18 -13 -40 -35 -22 -22 -40 -44 -40 -50 0 -5 -6 -10 -13 -10 -13 0
-53 -46 -55 -63 0 -5 -9 -16 -19 -25 -11 -9 -29 -34 -42 -54 -12 -21 -27 -38
-32 -38 -6 0 -8 -4 -5 -9 3 -5 -1 -14 -9 -21 -7 -6 -11 -19 -8 -27 4 -11 2
-14 -5 -9 -7 4 -14 -3 -18 -19 -3 -14 -10 -25 -15 -25 -5 0 -8 -3 -7 -7 1 -5
-11 -34 -25 -67 -15 -32 -27 -64 -27 -72 0 -7 -4 -15 -9 -18 -4 -3 -12 -20
-16 -38 -4 -18 -9 -40 -12 -48 -2 -8 -5 -21 -5 -27 -1 -7 -4 -13 -8 -13 -3 0
-6 -8 -7 -17 0 -10 -4 -36 -8 -58 -5 -22 -8 -50 -8 -62 1 -13 -2 -21 -6 -18
-10 6 -7 -27 4 -44 5 -9 4 -12 -3 -7 -8 4 -11 -34 -11 -129 0 -102 3 -134 12
-129 9 5 9 4 0 -6 -7 -8 -9 -19 -4 -29 5 -9 7 -26 6 -39 -1 -13 2 -25 7 -28 5
-3 3 -13 -4 -22 -10 -12 -10 -14 0 -8 11 7 17 -10 13 -41 -1 -7 3 -13 10 -13
6 0 9 -6 6 -14 -3 -8 -3 -17 1 -20 3 -4 7 -14 8 -24 3 -17 11 -53 14 -62 1 -3
2 -8 1 -12 0 -5 3 -8 8 -8 8 0 25 -56 22 -72 0 -5 3 -8 8 -8 9 0 35 -58 32
-72 0 -5 4 -8 10 -8 5 0 7 -4 4 -10 -3 -5 -2 -10 3 -10 8 0 23 -34 21 -48 0
-2 7 -9 15 -15 9 -7 24 -26 33 -44 20 -35 57 -84 90 -120 12 -12 20 -23 17
-23 -3 0 1 -7 10 -15 8 -8 20 -15 27 -15 7 0 10 -3 7 -6 -7 -7 39 -54 53 -54
6 0 7 -4 4 -10 -3 -5 1 -10 9 -10 8 0 18 -9 21 -20 3 -11 12 -20 20 -20 7 0
26 -13 41 -29 15 -17 31 -28 35 -25 4 2 9 -3 13 -11 3 -8 12 -15 21 -15 8 0
15 -4 15 -10 0 -5 9 -10 21 -10 11 0 17 -5 14 -10 -3 -6 1 -10 9 -10 8 0 21
-7 30 -15 8 -9 17 -15 18 -14 4 3 82 -33 88 -41 7 -8 83 -32 94 -30 5 1 12 -3
15 -8 4 -6 18 -13 31 -15 14 -2 34 -7 45 -11 11 -5 27 -10 35 -14 8 -3 29 -7
45 -9 17 -2 36 -4 43 -5 6 -1 12 -4 12 -8 0 -3 15 -5 33 -5 17 1 37 -2 42 -6
11 -8 292 -5 364 4 24 3 48 10 54 16 7 7 15 7 24 0 10 -9 13 -8 13 1 0 7 8 10
20 7 11 -3 23 -1 26 4 3 5 10 7 15 4 5 -4 9 -2 9 4 0 6 7 8 15 5 8 -4 15 -2
15 3 0 5 10 10 23 11 13 1 48 13 79 26 31 14 59 22 62 19 3 -4 6 -1 6 6 0 7 4
10 9 7 5 -4 11 -1 13 4 2 6 12 12 21 14 10 1 22 8 26 15 5 7 10 11 13 9 7 -5
78 35 78 44 0 5 7 8 15 8 8 0 15 5 15 11 0 5 5 7 10 4 6 -3 10 -1 10 4 0 6 5
11 10 11 6 0 22 10 35 22 36 34 54 49 57 46 6 -5 54 47 51 55 -2 4 0 7 6 7 12
0 61 44 61 55 0 3 16 21 35 37 19 17 32 35 29 40 -3 4 -1 8 5 8 5 0 18 13 27
29 10 17 21 28 26 25 5 -3 8 -2 7 3 -4 21 2 34 13 27 6 -4 8 -3 5 3 -3 5 5 26
19 46 14 20 21 37 17 37 -4 0 -3 4 3 8 15 11 64 109 57 116 -4 3 0 6 7 6 7 0
11 3 7 6 -3 4 1 21 10 38 9 17 18 40 20 50 2 11 8 25 14 33 9 10 8 13 -2 13
-12 0 -12 2 0 9 7 5 10 14 7 20 -4 6 -3 11 2 11 6 0 13 7 16 16 4 10 2 13 -6
8 -7 -5 -8 -3 -2 7 10 17 15 38 15 62 0 9 4 17 8 17 4 0 7 20 6 44 0 25 2 43
6 40 9 -5 4 305 -5 356 -4 19 -8 44 -10 55 -5 37 -26 110 -37 129 -8 13 -7 16
1 11 6 -3 2 8 -8 27 -10 18 -18 42 -17 53 0 11 -4 23 -10 27 -5 4 -10 11 -11
15 0 4 -5 19 -11 33 -6 14 -10 28 -9 31 0 4 -7 16 -17 26 -9 11 -14 23 -10 26
3 4 1 7 -5 7 -7 0 -12 7 -12 15 0 8 -5 15 -11 15 -5 0 -8 4 -5 8 3 5 -4 19
-15 30 -11 12 -16 22 -12 22 4 0 3 4 -2 8 -6 4 -21 24 -35 44 -14 21 -28 38
-32 38 -5 0 -8 4 -8 10 0 11 -32 51 -70 88 -14 13 -24 29 -22 34 1 5 -2 7 -8
3 -5 -3 -10 -1 -10 4 0 6 -7 11 -15 11 -8 0 -15 4 -15 10 0 13 -48 59 -54 52
-3 -3 -6 0 -6 6 0 6 -9 14 -20 17 -11 4 -18 10 -16 14 3 4 -10 13 -27 21 -18
7 -38 22 -45 32 -7 10 -19 18 -27 18 -8 0 -19 8 -24 18 -6 9 -11 13 -11 9 0
-4 -10 -2 -22 5 -13 7 -26 11 -30 10 -5 -1 -8 2 -8 7 0 9 -60 37 -72 33 -5 -1
-8 2 -8 8 0 6 -3 9 -7 8 -5 -1 -17 3 -28 9 -11 6 -29 13 -40 14 -11 2 -26 9
-33 16 -7 7 -19 10 -27 7 -8 -4 -15 -1 -15 5 0 6 -13 11 -29 11 -17 0 -32 4
-35 9 -4 5 -17 8 -31 6 -14 -1 -25 2 -25 8 0 5 -8 3 -17 -4 -10 -8 -14 -9 -10
-2 4 6 3 14 -2 17 -5 4 -12 2 -16 -4 -4 -6 -17 -4 -37 6 -16 9 -27 11 -24 5 4
-6 2 -11 -3 -11 -6 0 -11 5 -11 10 0 7 -7 7 -21 -1 -14 -7 -19 -7 -15 0 5 7
-37 10 -139 9 -80 -1 -145 -5 -145 -10 0 -4 -5 -8 -11 -8 -5 0 -7 5 -4 10 7
11 2 13 -9 3z"/>
</g>
</svg>
